PathFileType	4	(X/Y/Z)	D:\TRACE\v60_Jaco2_6-2-23\BothDRS_Motion3_9-platform.trc
DataRate	CameraRate	NumFrames	NumMarkers	Units	OrigDataRate	OrigDataStartFrame	OrigNumFrames
100.00	100.00	      36	5	mm	100.00	5251	      7000
Frame#	Time	Left_Front			Right_Front			Left_Aft			Right_Aft			Post			
		X1	Y1	Z1	X2	Y2	Z2	X3	Y3	Z3	X4	Y4	Z4	X5	Y5	Z5	

5251	52.500	-794.58118	5.22192	-652.26245	775.96576	3.18839	-629.34161	-725.30884	15.08324	484.29886	688.94611	12.71720	587.20636	0.73151	1300.17139	-974.60876	
5252	52.510	-794.56622	4.98457	-652.37909	776.06079	2.91644	-629.37671	-725.26556	15.16599	484.20215	688.98981	12.83990	587.10870	0.77074	1299.85254	-975.02350	
5253	52.520	-794.52148	4.64159	-652.41998	776.06836	2.66277	-629.44977	-725.39081	15.53018	483.83716	688.95331	13.05481	587.14929	0.94312	1299.47839	-975.51678	
5254	52.530	-794.45746	4.32466	-652.48901	776.06744	2.53031	-629.50024	-725.39777	15.69277	483.72583	689.09711	13.27434	587.15240	0.96356	1299.26611	-975.92871	
5255	52.540	-794.48199	3.96934	-652.50293	776.09393	2.40075	-629.55103	-725.32349	15.94621	483.72021	688.96436	13.38592	587.12390	1.02586	1298.85889	-976.59766	
5256	52.550	-794.51996	3.86371	-652.53442	776.17206	2.22432	-629.61371	-725.20996	16.19269	483.78476	689.03583	13.58742	587.03223	0.83140	1298.56409	-977.25604	
5257	52.560	-794.43665	3.69885	-652.57654	776.18176	2.02289	-629.62421	-725.21588	16.42305	483.75894	688.98804	13.71378	586.90741	0.77735	1298.21838	-977.92419	
5258	52.570	-794.42621	3.57776	-652.59393	776.13831	1.73754	-629.65326	-725.18347	16.56320	483.81735	689.03113	13.86867	586.82300	0.79859	1297.71667	-978.59106	
5259	52.580	-794.01318	3.19244	-652.11963	776.12738	1.40906	-629.74695	-725.15015	16.63356	483.77405	689.04547	13.98045	586.83771	1.01303	1297.37915	-978.98596	
5260	52.590	-794.44543	2.92970	-652.53619	776.24451	1.03781	-629.81238	-724.91669	16.38391	483.92853	689.05255	14.11058	586.74805	1.10395	1297.09998	-979.27277	
5261	52.600	-794.44476	2.76625	-652.56970	776.28107	0.73090	-629.87634	-724.81232	16.56146	483.89334	689.04071	14.36448	586.60767	1.13578	1296.55078	-979.67029	
5262	52.610	-794.39148	2.46753	-652.69836	776.39911	0.37025	-629.91791	-724.77325	16.79059	483.78250	689.20691	14.84846	586.47620	1.13500	1295.89001	-980.23352	
5263	52.620	-794.32208	2.17718	-652.88312	776.51630	-0.03501	-630.06738	-724.76526	17.09277	483.63657	689.54456	15.47487	586.39240	1.19149	1295.43896	-980.83618	
5264	52.630	-794.33551	1.82517	-653.07263	776.42914	-0.38069	-630.12964	-724.75500	17.41162	483.40143	689.41858	15.51904	585.74768	1.20409	1294.90967	-981.55206	
5265	52.640	-794.20166	1.42530	-653.27930	776.52423	-0.61047	-630.16913	-724.69897	17.79184	483.19287	689.57074	15.93046	586.21722	1.26948	1294.09583	-982.49316	
5266	52.650	-794.07507	0.96359	-653.54065	776.66193	-0.83646	-630.32611	-724.54449	18.14888	483.12549	689.84607	16.19277	586.32666	1.55306	1293.57568	-983.44690	
5267	52.660	-793.92554	0.53208	-653.33252	776.79254	-1.41477	-630.44299	-724.44769	18.33435	483.04456	689.84631	16.32992	586.28979	1.71893	1293.29077	-984.40002	
5268	52.670	-793.92694	0.03444	-653.27545	776.88708	-1.62811	-630.48120	-724.41852	18.47717	482.98691	689.93872	16.57049	586.18579	1.58430	1292.60242	-985.64960	
5269	52.680	-793.77734	-0.53578	-653.49371	776.83136	-1.93434	-630.65381	-724.37531	18.59546	482.96667	689.90735	16.87693	586.04205	1.92488	1292.03040	-986.67950	
5270	52.690	-793.53589	-1.02301	-653.70386	776.99347	-2.43432	-630.69019	-724.24884	18.76668	482.95529	689.75574	17.23172	585.88245	2.05602	1291.51013	-987.66425	
5271	52.700	-793.39948	-1.40890	-653.72717	777.17108	-2.93171	-630.66736	-724.10327	19.17037	482.78622	689.94495	17.53340	585.78345	2.05129	1290.92603	-988.70502	
5272	52.710	-793.24786	-1.64203	-653.68787	777.26422	-3.27810	-630.79218	-723.92596	19.61603	482.58423	690.28430	17.94413	585.74872	1.96500	1290.18311	-989.80426	
5273	52.720	-792.93488	-1.99527	-653.66058	777.24127	-3.61640	-630.95288	-723.74481	19.96204	482.44049	690.56293	18.35045	585.59595	2.26333	1289.57764	-990.44958	
5274	52.730	-792.89191	-2.29886	-653.69751	777.43701	-4.07294	-631.04248	-723.61975	20.22602	482.36340	690.64502	18.67917	585.46179	2.49886	1288.92053	-991.20831	
5275	52.740	-792.94629	-2.64976	-653.84174	777.66400	-4.69263	-631.10229	-723.66656	20.44819	482.29367	690.65802	19.00595	585.30682	2.71038	1288.32727	-991.76599	
5276	52.750	-792.81812	-3.40495	-653.86963	777.69635	-5.07608	-631.19263	-723.54572	20.69731	482.16806	690.64172	19.24125	585.20166	2.66764	1287.44470	-992.58551	
5277	52.760	-792.61304	-4.33079	-653.92993	777.91156	-5.47440	-631.38104	-723.35760	21.11304	482.04269	690.59546	19.66414	585.21429	2.72447	1286.76062	-993.48547	
5278	52.770	-792.67133	-4.76997	-654.12097	777.97241	-5.94801	-631.46509	-723.30096	21.65773	481.92746	690.87598	20.21803	584.92542	2.76219	1286.16663	-994.29761	
5279	52.780	-792.56055	-5.27496	-654.34760	778.15521	-6.43627	-631.55841	-723.26050	22.07357	481.58362	691.18567	20.78589	584.65479	3.29929	1285.28540	-995.15887	
5280	52.790	-792.32959	-5.26537	-654.39905	778.31567	-6.95439	-631.73407	-723.12598	22.23009	481.50229	691.26135	20.88966	584.57001	3.50037	1284.54370	-996.19739	
5281	52.800	-792.17737	-5.72230	-654.49567	778.52966	-7.42218	-631.71277	-722.90662	22.63199	481.47623	691.40247	21.25346	584.58636	3.27094	1283.85693	-997.52863	
5282	52.810	-792.09094	-6.06920	-654.74976	778.75769	-7.88963	-631.80267	-722.74878	23.12104	481.47806	691.58685	21.56701	584.54462	3.80015	1283.27405	-998.65985	
5283	52.820	-791.99359	-6.61387	-654.94012	778.74200	-8.33301	-632.05023	-722.62152	23.41964	481.35815	691.81775	22.05595	584.45837	3.92650	1282.22351	-999.98621	
5284	52.830	-791.77997	-7.25977	-654.91846	778.99719	-8.75931	-632.16071	-722.38702	23.82707	481.10019	692.03851	22.66351	584.16528	3.82168	1281.61328	-1001.35114	
5285	52.840	-791.49457	-7.85070	-654.88666	779.26581	-9.28714	-632.16461	-722.15155	24.08858	480.99539	692.15442	23.05606	584.02130	4.27952	1280.81641	-1002.68542	
5286	52.850	-791.16876	-8.28819	-655.04041	779.29144	-9.86778	-632.36108	-721.86292	24.32271	480.94031	692.25800	23.29163	584.08191	4.70411	1279.80127	-1003.84747	
